<?xml version="1.0" encoding="utf-8"?>
<!-- Generator: Adobe Illustrator 18.1.0, SVG Export Plug-In . SVG Version: 6.00 Build 0)  -->
<!DOCTYPE svg PUBLIC "-//W3C//DTD SVG 1.1//EN" "http://www.w3.org/Graphics/SVG/1.1/DTD/svg11.dtd">
<svg version="1.1" id="Layer_1" xmlns="http://www.w3.org/2000/svg" xmlns:xlink="http://www.w3.org/1999/xlink" x="0px" y="0px"
	 viewBox="0 0 40 40" enable-background="new 0 0 40 40" xml:space="preserve">
<path fill="#FFFFFF" d="M39.3,20.3c0,10.7-8.7,19.3-19.3,19.3S0.6,31,0.6,20.3S9.3,1,19.9,1S39.3,9.7,39.3,20.3z M32.1,27.5
	c0-0.2-0.1-0.3-0.1-0.5V13.3c0-0.2,0.1-0.3,0.1-0.4L24,19.8L32.1,27.5z M20,21.4l2.1-1.7l1.1-0.9l8.1-6.8c-0.1,0-0.3,0-0.4,0H9.1
	c-0.2,0-0.3,0-0.4,0l8,6.9l1.1,0.9L20,21.4z M30.8,29c0.1,0,0.3-0.3,0.4-0.3l-8.1-7.9L20,23.2l-3.1-2.6l-8.1,8C8.8,28.7,9,29,9.1,29
	H30.8z M7.9,12.9C7.8,13,8,13.1,8,13.3V27c0,0.2-0.2,0.3-0.1,0.5l8.1-7.7L7.9,12.9z"/>
</svg>
