<?xml version="1.0" encoding="utf-8"?>
<!-- Generator: Adobe Illustrator 18.1.0, SVG Export Plug-In . SVG Version: 6.00 Build 0)  -->
<!DOCTYPE svg PUBLIC "-//W3C//DTD SVG 1.1//EN" "http://www.w3.org/Graphics/SVG/1.1/DTD/svg11.dtd">
<svg version="1.1" id="Layer_1" xmlns="http://www.w3.org/2000/svg" xmlns:xlink="http://www.w3.org/1999/xlink" x="0px" y="0px"
	 viewBox="0 0 40 40" enable-background="new 0 0 40 40" xml:space="preserve">
<g>
	<g>
		<path fill="none" d="M17,13.2V17h-5v5h5v12h5V22h4.1l0.6-5H22v-3.4c0-1.4,0.3-2.6,2.3-2.6H27V6.8c-1-0.1-1.9-0.2-3.7-0.2
			C19.5,6.6,17,8.9,17,13.2z"/>
		<path fill="#FFFFFF" d="M19.9,1C9.3,1,0.6,9.7,0.6,20.3c0,10.7,8.7,19.3,19.3,19.3S39.3,31,39.3,20.3C39.3,9.7,30.6,1,19.9,1z
			 M27,11h-2.7c-2,0-2.3,1.2-2.3,2.6V17h4.8l-0.6,5H22v12h-5V22h-5v-5h5v-3.8c0-4.2,2.5-6.6,6.3-6.6c1.8,0,2.7,0.1,3.7,0.2V11z"/>
	</g>
</g>
</svg>
