<?xml version="1.0" encoding="utf-8"?>
<!-- Generator: Adobe Illustrator 18.1.0, SVG Export Plug-In . SVG Version: 6.00 Build 0)  -->
<!DOCTYPE svg PUBLIC "-//W3C//DTD SVG 1.1//EN" "http://www.w3.org/Graphics/SVG/1.1/DTD/svg11.dtd">
<svg version="1.1" id="Layer_1" xmlns="http://www.w3.org/2000/svg" xmlns:xlink="http://www.w3.org/1999/xlink" x="0px" y="0px"
	 viewBox="0 0 40 40" enable-background="new 0 0 40 40" xml:space="preserve">
<path fill="#FFFFFF" d="M39.3,20.3c0,10.7-8.7,19.3-19.3,19.3S0.6,31,0.6,20.3S9.3,1,19.9,1S39.3,9.7,39.3,20.3z M15.4,30
	C24.3,30,29,22.6,29,16.2c0-0.2,0-0.4,0-0.6c1-0.7,2-1.5,2.6-2.5c-0.9,0.4-1.7,0.7-2.7,0.8c1-0.6,1.8-1.5,2.2-2.7
	c-0.9,0.5-2,1-3.1,1.2c-0.9-0.9-2.2-1.5-3.5-1.5c-2.7,0-4.9,2.2-4.9,4.9c0,0.4,0,0.7,0.1,1.1c-4-0.3-7.6-2.2-9.9-5.1
	c-0.4,0.7-0.7,1.5-0.7,2.4c0,1.7,0.8,3.2,2.1,4.1c-0.8,0-1.2-0.2-2.2-0.6c0,0,0,0,0,0.1c0,2.4,1.7,4.3,3.9,4.8
	c-0.4,0.1-0.8,0.2-1.3,0.2c-0.3,0-0.6,0-0.9-0.1c0.6,1.9,2.4,3.3,4.5,3.4c-1.7,1.3-3.8,2.1-6,2.1c-0.4,0-0.9,0-1.2-0.1
	C10.2,29.1,12.7,30,15.4,30"/>
</svg>
